<?xml version="1.0" standalone="no"?>
<!DOCTYPE svg PUBLIC "-//W3C//DTD SVG 20010904//EN"
 "http://www.w3.org/TR/2001/REC-SVG-20010904/DTD/svg10.dtd">
<svg version="1.0" xmlns="http://www.w3.org/2000/svg"
 width="1920.000000pt" height="1680.000000pt" viewBox="0 0 1920.000000 1680.000000"
 preserveAspectRatio="xMidYMid meet">

<g transform="translate(0.000000,1680.000000) scale(0.100000,-0.100000)"
fill="#000000" stroke="none">
<path d="M14273 14133 c-18 -7 -16 -32 2 -39 9 -4 20 -14 25 -23 7 -15 5 -17
-20 -13 -21 3 -29 -1 -34 -15 -5 -16 -137 -815 -461 -2793 -53 -322 -97 -588
-98 -592 -1 -4 -48 56 -103 135 -785 1100 -2039 1757 -3355 1757 -182 0 -187
1 -203 23 l-15 22 -21 -24 c-18 -21 -33 -25 -123 -32 -138 -12 -368 -45 -499
-73 -71 -15 -111 -19 -118 -12 -6 6 -16 4 -28 -7 -11 -10 -72 -33 -138 -51
-1394 -400 -2489 -1505 -2888 -2913 -25 -87 -48 -174 -51 -194 -10 -54 -20
-66 -41 -48 -30 24 -260 19 -358 -9 -110 -32 -243 -83 -436 -167 -325 -142
-488 -192 -660 -201 -180 -10 -310 32 -453 145 -259 206 -340 530 -205 823 29
64 32 98 8 98 -17 0 -86 -157 -104 -237 -71 -319 99 -655 409 -809 255 -126
489 -95 1031 139 404 174 542 208 739 181 46 -7 47 -7 41 -38 -56 -272 -78
-481 -83 -811 -6 -338 7 -514 57 -810 48 -279 141 -619 230 -837 16 -39 28
-73 27 -74 -1 -1 -56 -20 -123 -42 -146 -49 -257 -103 -467 -229 -270 -162
-404 -213 -557 -213 -263 0 -522 180 -672 467 -25 49 -71 156 -103 238 -63
166 -116 279 -166 352 -247 360 -779 497 -1245 321 -184 -69 -349 -183 -514
-355 -406 -421 -501 -878 -258 -1250 66 -101 191 -224 308 -302 163 -109 444
-240 645 -302 l90 -28 -1273 0 c-858 -1 -1280 -4 -1293 -11 -19 -11 -19 -40
-19 -1695 0 -1655 0 -1684 19 -1695 11 -5 37 -10 59 -10 31 0 118 -40 423
-196 372 -191 386 -197 454 -201 39 -3 270 2 514 11 392 14 446 18 463 33 41
37 25 51 -242 206 l-254 147 2295 0 c1902 0 2298 2 2313 13 18 13 19 77 19
1696 0 1436 -2 1684 -14 1692 -8 5 -696 9 -1616 9 -1568 0 -1604 0 -1707 20
-208 40 -508 153 -708 266 -375 212 -558 468 -558 783 0 269 131 531 400 802
188 188 350 289 572 353 345 100 732 17 976 -209 111 -102 176 -217 277 -485
105 -278 219 -448 384 -569 139 -102 278 -151 431 -151 166 0 300 51 598 229
232 138 400 215 538 245 l31 7 97 -196 c233 -477 489 -831 867 -1200 448 -437
976 -760 1574 -961 1568 -530 3306 -53 4415 1213 504 575 863 1320 990 2058
23 135 36 175 55 175 6 0 116 53 245 118 481 243 767 339 1060 357 408 26 801
-163 940 -450 106 -221 23 -456 -257 -726 -162 -156 -286 -229 -608 -359 -297
-120 -396 -177 -515 -299 -303 -312 -301 -813 5 -1140 65 -70 171 -154 265
-211 l74 -45 -949 -5 -950 -5 -3 -1155 c-2 -1077 -1 -1156 15 -1168 13 -9 198
-12 843 -12 l826 0 27 -172 c15 -95 27 -179 27 -185 0 -10 -179 -13 -864 -13
-778 0 -864 -2 -870 -16 -3 -9 -6 -64 -6 -124 0 -60 3 -115 6 -124 6 -15 206
-16 2169 -16 1963 0 2163 1 2169 16 12 30 7 239 -6 252 -9 9 -175 12 -685 12
l-673 0 0 28 c1 15 7 92 14 172 8 79 11 150 9 157 -4 10 131 13 673 15 l678 3
13 25 c16 32 19 2243 3 2284 l-10 26 -1170 0 -1170 0 -68 34 c-252 127 -441
318 -518 526 -130 346 -10 719 298 922 80 53 174 98 373 178 99 40 214 90 256
110 302 152 580 445 653 689 20 70 21 201 0 272 -36 123 -156 275 -289 366
-193 130 -392 187 -655 187 -258 -1 -466 -51 -803 -195 -171 -74 -510 -242
-556 -277 l-34 -25 6 69 c26 258 29 351 24 609 -6 293 -19 433 -63 675 -15 80
-27 152 -26 160 0 8 -6 33 -13 55 -7 22 -27 92 -44 155 -77 294 -237 695 -369
928 -28 49 -37 74 -29 77 6 2 478 124 1047 269 569 146 1406 360 1860 476 454
116 976 249 1160 295 366 90 454 116 482 142 17 15 18 68 18 1259 l0 1243 -22
15 c-20 14 -231 16 -2058 15 -1119 0 -2041 -3 -2047 -6z m4064 -1266 c2 -1115
1 -1199 -15 -1204 -9 -4 -21 -12 -27 -19 -16 -20 -115 -44 -2915 -713 -894
-213 -1629 -384 -1634 -380 -9 8 544 3416 566 3487 l10 32 2006 -2 2007 -3 2
-1198z m-8070 -582 c40 -691 53 -928 53 -955 l0 -30 -191 0 -191 0 7 133 c16
317 64 921 81 1025 l5 33 112 -3 112 -3 12 -200z m198 195 c157 -11 327 -32
458 -56 72 -13 87 -19 87 -35 0 -10 19 -60 41 -111 63 -142 144 -368 204 -575
67 -225 130 -481 122 -489 -3 -4 -84 3 -179 15 -235 29 -466 49 -657 57 l-158
7 -7 161 c-14 327 -35 650 -68 1016 -1 12 3 20 10 20 4 0 70 -5 147 -10z
m-498 -28 c-9 -47 -47 -540 -65 -857 l-17 -300 -185 -7 c-194 -8 -569 -40
-730 -62 -52 -7 -97 -12 -99 -10 -7 6 70 305 130 504 82 274 203 600 238 640
19 21 248 70 451 94 69 9 139 17 155 19 17 2 52 5 79 6 48 1 48 1 43 -27z
m1223 -87 c261 -64 503 -152 767 -280 151 -73 171 -86 166 -104 -4 -14 25 -65
100 -178 119 -179 229 -367 321 -552 76 -152 159 -341 153 -347 -3 -3 -80 18
-173 46 -299 90 -734 191 -989 230 -44 7 -85 18 -91 24 -6 6 -22 56 -34 111
-29 131 -139 512 -185 645 -20 58 -66 178 -101 267 -35 89 -64 164 -64 167 0
3 6 3 13 1 6 -2 59 -16 117 -30z m-2024 -27 c-102 -225 -256 -698 -331 -1019
l-27 -115 -111 -18 c-174 -27 -494 -94 -682 -141 -148 -38 -465 -130 -519
-151 -24 -9 -21 0 56 181 75 176 195 412 293 577 71 120 79 130 148 176 284
191 677 375 1037 486 127 39 145 42 136 24z m3244 -506 c472 -307 871 -701
1189 -1174 39 -58 71 -110 71 -116 0 -5 -10 -16 -22 -25 -22 -14 -31 -10 -160
54 -165 83 -362 168 -553 239 -77 28 -145 57 -151 63 -7 7 -33 64 -60 127
-113 268 -303 615 -465 848 -44 62 -79 116 -79 119 0 8 105 -53 230 -135z
m-4633 -184 c-121 -208 -201 -371 -307 -623 l-67 -160 -184 -71 c-101 -39
-240 -96 -308 -127 -69 -31 -126 -55 -128 -53 -6 6 176 256 262 361 133 162
275 312 406 432 132 120 329 282 342 282 5 1 -2 -18 -16 -41z m2094 -670 c-12
-285 -31 -839 -31 -929 l0 -56 -217 -7 c-242 -7 -601 -30 -817 -50 -78 -8
-143 -12 -145 -10 -9 8 54 489 95 729 18 107 95 499 98 502 6 6 328 44 496 58
166 15 520 34 529 28 1 -1 -2 -120 -8 -265z m454 260 c3 -12 32 -874 38 -1137
l2 -104 -235 0 -235 -1 2 150 c4 236 33 1036 39 1072 l5 32 190 0 c143 0 191
-3 194 -12z m537 -23 c211 -19 514 -56 528 -65 32 -20 222 -1192 197 -1216 -4
-4 -98 0 -209 10 -305 24 -479 35 -730 42 l-226 7 -6 121 c-3 67 -10 344 -16
616 -7 272 -14 499 -18 504 -7 11 258 1 480 -19z m-2072 -78 c0 -8 -13 -80
-30 -160 -53 -265 -119 -685 -155 -1000 -4 -32 -12 -60 -18 -61 -7 -2 -95 -13
-197 -25 -342 -40 -782 -114 -1093 -184 -81 -18 -149 -32 -151 -30 -6 6 45
257 89 438 50 206 115 428 175 596 l41 116 147 46 c323 102 674 188 1011 247
188 34 181 33 181 17z m2860 -27 c401 -74 1032 -240 1078 -285 30 -28 173
-450 247 -728 41 -157 96 -399 91 -405 -2 -2 -77 13 -167 32 -325 70 -712 133
-1073 176 -93 11 -171 22 -175 25 -3 3 -18 106 -33 228 -39 313 -133 870 -164
970 -7 23 1 22 196 -13z m-4275 -327 c-4 -10 -34 -99 -67 -198 -67 -206 -154
-545 -193 -750 -14 -77 -30 -149 -34 -161 -7 -15 -25 -24 -67 -33 -145 -33
-532 -150 -706 -215 -38 -14 -68 -21 -68 -16 0 24 133 410 179 519 64 152 174
372 252 506 l58 100 173 75 c169 73 455 188 472 189 4 1 5 -7 1 -16z m5561
-24 c176 -66 379 -154 552 -239 l162 -79 0 -36 c0 -45 25 -58 51 -26 12 14 27
21 41 19 40 -5 215 -367 323 -665 45 -123 125 -385 125 -410 0 -17 -87 21
-108 47 -28 34 -432 168 -772 256 -96 26 -176 47 -177 48 0 0 -18 75 -38 166
-64 289 -151 588 -239 829 -25 69 -46 126 -46 128 0 8 24 1 126 -38z m-3100
-956 c-3 -76 -9 -343 -12 -594 l-6 -455 -582 -13 c-319 -6 -599 -15 -620 -18
l-39 -6 7 204 c10 312 56 932 69 945 13 14 811 66 1100 72 l89 2 -6 -137z
m537 -150 c4 -157 7 -425 7 -595 l0 -308 -256 0 -257 0 7 383 c3 210 9 478 12
595 l6 212 238 0 237 0 6 -287z m607 266 c116 -5 227 -16 255 -24 28 -8 119
-22 204 -30 85 -8 156 -17 159 -20 13 -12 56 -607 68 -934 l7 -184 -179 6
c-98 4 -378 10 -621 14 l-443 6 0 307 c0 169 -3 436 -7 595 l-6 288 179 -7
c98 -3 271 -11 384 -17z m-2390 -71 c0 -7 -9 -116 -20 -243 -18 -216 -31 -423
-46 -747 l-6 -138 -27 0 c-125 0 -1100 -59 -1335 -81 -60 -5 -111 -7 -114 -4
-8 8 17 402 38 590 24 211 48 378 58 387 15 15 414 98 707 147 151 25 266 42
660 94 62 8 85 7 85 -5z m3281 -28 c227 -28 459 -64 689 -106 224 -40 512
-102 522 -112 8 -8 50 -263 72 -432 19 -150 50 -519 44 -525 -3 -3 -126 4
-274 15 -353 25 -559 37 -899 50 -154 6 -285 13 -291 15 -7 2 -13 74 -17 207
-7 226 -21 453 -46 726 l-16 182 25 0 c15 0 100 -9 191 -20z m-4801 -229 c0
-6 -9 -70 -19 -143 -25 -172 -48 -407 -61 -637 -6 -102 -12 -186 -13 -186 -1
-1 -103 -11 -227 -23 -255 -25 -609 -69 -636 -79 -16 -6 -17 1 -10 93 13 193
49 425 98 636 l20 87 77 29 c113 43 373 125 578 182 199 55 193 53 193 41z
m6271 -51 c359 -98 849 -272 869 -310 23 -43 83 -426 96 -616 l7 -100 -205 27
c-113 15 -348 42 -524 60 -175 18 -321 34 -323 35 -2 2 -7 61 -12 131 -13 190
-46 478 -74 651 -26 157 -28 172 -21 172 2 0 86 -23 187 -50z m-3521 -1467 l0
-626 -392 6 c-216 4 -491 10 -610 14 l-218 6 -5 31 c-16 98 -33 1092 -19 1143
5 19 15 22 97 28 105 7 667 21 955 23 l192 2 0 -627z m560 2 l0 -625 -255 0
-255 0 0 625 0 625 255 0 255 0 0 -625z m1002 609 l286 -7 8 -116 c7 -111 -12
-982 -23 -1048 -5 -30 -8 -32 -57 -37 -57 -6 -852 -26 -1043 -26 l-123 0 0
626 0 627 333 -7 c182 -3 461 -9 619 -12z m-2858 -546 c3 -293 9 -562 12 -597
l7 -64 -194 7 c-318 11 -1037 55 -1202 72 -48 6 -58 10 -62 28 -16 73 -37 407
-42 677 l-6 316 64 7 c203 21 1115 77 1365 85 l51 1 7 -532z m3731 512 c83 -6
290 -19 460 -31 171 -11 349 -22 397 -26 l88 -6 6 -35 c9 -46 -3 -748 -15
-876 -5 -54 -14 -102 -20 -106 -29 -17 -1443 -102 -1458 -87 -3 3 0 133 6 289
6 156 11 422 11 592 l0 309 188 -7 c103 -3 255 -11 337 -16z m1263 -95 c251
-27 594 -68 726 -86 l79 -12 -6 -246 c-6 -221 -15 -353 -33 -477 -5 -36 -10
-43 -34 -48 -56 -11 -519 -66 -725 -86 -115 -11 -227 -22 -249 -24 l-39 -4 7
76 c16 202 27 585 21 750 -5 133 -4 182 4 182 6 0 118 -11 249 -25z m-6538
-157 c0 -234 24 -646 46 -790 6 -38 6 -38 -30 -38 -103 0 -845 85 -858 98 -32
32 -61 821 -29 814 7 -1 108 9 225 23 267 33 548 63 604 64 l42 1 0 -172z
m7270 -882 c-42 -234 -158 -654 -192 -698 -14 -18 -314 -123 -551 -192 -179
-53 -438 -119 -443 -113 -3 2 7 51 20 108 54 228 114 584 141 835 l7 60 191
18 c171 15 640 71 787 94 30 5 56 7 58 6 2 -1 -6 -54 -18 -118z m-7904 64
c147 -18 650 -70 679 -70 8 0 15 -23 19 -62 22 -198 121 -702 176 -892 11 -38
18 -72 15 -74 -12 -12 -625 152 -785 210 l-65 23 -43 118 c-79 219 -192 657
-192 745 0 27 -4 27 196 2z m6824 -105 c0 -123 -100 -711 -161 -946 l-9 -36
-152 -33 c-364 -78 -688 -129 -1232 -193 -33 -4 -33 -36 3 243 28 215 58 522
72 732 l12 177 71 5 c39 3 217 12 396 21 303 15 870 51 915 59 11 2 35 4 53 5
30 1 32 -1 32 -34z m-5825 10 c227 -17 631 -41 955 -56 129 -6 237 -15 240
-19 3 -5 11 -92 18 -192 16 -234 46 -533 78 -767 13 -101 22 -186 19 -189 -18
-19 -754 85 -1166 164 l-186 36 -32 121 c-70 271 -115 493 -155 760 l-23 157
31 0 c17 0 117 -7 221 -15z m1930 -85 c264 -6 495 -10 513 -10 l32 0 1 -242
c0 -134 4 -403 8 -598 5 -195 7 -357 4 -359 -11 -14 -1094 47 -1110 62 -17 18
-123 1007 -123 1155 0 11 20 12 98 7 53 -3 313 -10 577 -15z m2370 -47 c-3
-38 -12 -151 -21 -253 -26 -321 -86 -825 -99 -839 -15 -14 -699 -59 -970 -63
l-150 -3 3 115 c1 63 7 331 12 594 6 264 12 481 14 483 2 3 228 9 503 14 274
5 512 11 528 13 17 1 65 4 108 4 l78 2 -6 -67z m-1269 -310 c-3 -192 -9 -462
-12 -600 l-7 -253 -232 0 -233 0 -6 328 c-3 180 -8 450 -12 600 l-5 272 257 0
257 0 -7 -347z m3654 -308 c0 -12 -78 -192 -134 -310 -120 -250 -274 -502
-444 -725 -144 -188 -212 -263 -228 -249 -10 8 -48 -3 -156 -47 -188 -75 -478
-176 -478 -166 0 5 25 59 55 121 141 286 311 747 386 1044 l11 45 111 27 c242
59 702 199 819 250 34 15 58 19 58 10z m-7345 -170 c99 -29 268 -74 376 -100
l196 -47 42 -137 c100 -320 220 -618 367 -908 51 -101 88 -183 84 -183 -4 0
-106 32 -227 72 -120 39 -225 72 -233 73 -26 2 -38 13 -152 143 -273 312 -509
681 -673 1050 -27 61 -28 63 -9 82 10 10 26 17 34 14 8 -3 96 -29 195 -59z
m6290 -167 c-16 -72 -117 -392 -168 -528 -83 -224 -267 -625 -300 -656 -25
-24 -475 -138 -757 -193 -192 -37 -426 -74 -439 -69 -5 2 -3 20 5 43 53 145
172 670 228 1008 19 109 35 200 37 202 2 2 51 9 109 15 183 20 468 59 680 95
208 35 562 104 569 111 2 2 13 4 23 4 17 0 19 -5 13 -32z m-5540 -18 c229 -49
694 -121 1040 -160 104 -12 191 -23 193 -24 1 -2 18 -93 37 -202 57 -334 128
-655 201 -917 20 -70 34 -130 32 -132 -6 -6 -301 39 -483 75 -88 17 -262 56
-386 86 l-227 55 -61 112 c-134 247 -257 528 -356 812 -81 230 -105 315 -91
315 6 0 52 -9 101 -20z m4081 -212 c-74 -445 -117 -641 -247 -1145 -20 -77
-23 -81 -53 -87 -105 -19 -673 -66 -803 -66 l-65 0 6 63 c8 85 25 465 39 867
l12 335 195 7 c232 8 512 25 705 42 77 7 157 14 178 15 37 1 38 1 33 -31z
m-2561 8 c181 -15 595 -35 780 -39 l100 -2 7 -205 c4 -113 14 -387 23 -610 8
-223 15 -415 15 -427 0 -22 -4 -23 -71 -23 -178 0 -785 51 -800 67 -17 19
-128 452 -179 698 -29 142 -100 528 -100 546 0 12 13 11 225 -5z m1398 -112
c-29 -794 -47 -1181 -57 -1191 -10 -10 -329 -15 -344 -5 -15 10 -25 185 -41
707 -6 187 -13 388 -16 447 l-5 108 223 2 c122 2 227 3 232 2 6 -1 9 -30 8
-70z m2702 -812 c-94 -92 -231 -216 -305 -275 -137 -109 -395 -288 -505 -348
-52 -29 -58 -31 -45 -12 8 12 49 71 90 130 41 59 118 180 171 268 l96 160 189
66 c104 36 250 91 324 122 74 30 140 55 145 56 6 0 -67 -75 -160 -167z m-5266
-131 c8 -4 44 -56 80 -114 37 -59 101 -157 143 -218 43 -61 71 -108 62 -105
-35 13 -291 194 -411 290 -70 57 -173 146 -228 199 l-100 96 220 -71 c121 -38
227 -73 234 -77z m-1089 -1536 l0 -1635 -2940 0 c-2617 0 -2944 2 -2970 15
l-30 16 0 1619 0 1620 2970 0 2970 0 0 -1635z m5728 1478 c-73 -126 -170 -274
-246 -376 -36 -49 -66 -99 -67 -110 0 -18 -24 -34 -115 -80 -424 -212 -911
-353 -1395 -402 -88 -9 -194 -15 -235 -13 l-76 3 13 120 c6 66 16 206 22 310
6 105 14 215 17 246 l6 56 141 7 c205 10 400 25 577 46 85 10 156 17 158 15 6
-6 -114 -330 -185 -497 -73 -172 -81 -208 -48 -208 30 0 137 254 250 589 l41
125 195 32 c314 53 747 149 929 208 25 8 51 14 57 15 7 1 -10 -38 -39 -86z
m-4093 -72 c174 -36 424 -79 567 -98 l58 -8 53 -155 c63 -182 143 -383 187
-471 l32 -62 -39 8 c-69 13 -326 96 -468 151 -193 76 -502 230 -517 257 -6 12
-37 56 -68 97 -70 92 -250 363 -250 377 0 5 57 -6 128 -24 70 -18 213 -50 317
-72z m1230 -160 c110 -7 227 -13 260 -14 l60 -2 7 -130 c4 -71 15 -235 23
-364 9 -128 15 -235 13 -236 -7 -6 -287 28 -418 51 -202 35 -213 39 -227 71
-6 16 -36 84 -66 153 -57 129 -187 479 -187 502 0 11 31 10 168 -4 92 -9 257
-21 367 -27z m8415 -1086 l0 -1105 -2125 0 -2125 0 0 1105 0 1105 2125 0 2125
0 0 -1105z m-7680 1056 c0 -9 -5 -70 -10 -136 -34 -446 -41 -534 -46 -564 l-5
-34 -61 7 c-34 3 -89 6 -124 6 l-63 0 -6 43 c-9 67 -46 678 -41 685 2 4 83 8
180 8 157 2 176 0 176 -15z m6316 -2253 c-3 -13 -10 -81 -16 -153 -6 -71 -13
-145 -16 -162 l-5 -33 -549 0 -548 0 -6 28 c-3 15 -15 86 -26 157 -11 72 -23
142 -26 158 l-6 27 601 0 601 0 -4 -22z m1344 -488 l0 -80 -2110 0 -2110 0 0
80 0 80 2110 0 2110 0 0 -80z m-15691 -331 c144 -84 260 -153 259 -155 -2 -2
-205 -10 -451 -19 l-448 -15 -237 119 c-130 66 -280 142 -332 170 l-95 51 521
0 522 0 261 -151z"/>
<path d="M15411 13694 c-199 -53 -400 -254 -495 -495 -93 -236 -97 -490 -12
-744 114 -339 299 -552 816 -941 205 -154 317 -224 361 -224 55 0 244 128 579
394 174 137 350 317 433 442 250 376 292 794 116 1147 -190 379 -534 534 -833
374 -70 -37 -208 -164 -257 -236 -19 -28 -36 -50 -39 -50 -3 0 -20 22 -39 50
-52 76 -188 199 -262 237 -121 61 -250 78 -368 46z m210 -44 c88 -16 193 -76
274 -155 89 -87 157 -178 149 -199 -7 -17 6 -20 44 -10 12 4 22 12 22 18 0 22
129 174 192 227 119 99 264 144 388 121 236 -43 446 -267 536 -569 35 -119 44
-326 20 -457 -34 -179 -120 -371 -236 -524 -65 -87 -229 -252 -335 -338 -211
-172 -472 -362 -552 -403 l-43 -21 -42 21 c-139 71 -580 412 -742 574 -204
204 -334 440 -382 692 -24 132 -15 338 20 457 85 285 277 501 497 560 65 18
118 19 190 6z"/>
<path d="M875 5128 c-3 -7 -4 -683 -3 -1503 l3 -1490 2840 0 2840 0 0 1500 0
1500 -2838 3 c-2265 2 -2839 0 -2842 -10z m5625 -1493 l0 -1445 -2785 0 -2785
0 0 1445 0 1445 2785 0 2785 0 0 -1445z"/>
<path d="M5714 4256 c-17 -8 -43 -12 -58 -9 -21 4 -26 2 -26 -16 0 -11 11 -28
24 -36 23 -15 27 -15 65 4 71 37 81 28 81 -68 0 -72 -24 -112 -95 -158 -77
-51 -79 -53 -62 -70 12 -13 21 -12 68 2 31 10 97 19 154 21 55 1 103 3 108 3
4 1 7 8 7 16 0 24 -35 35 -110 35 l-71 0 23 31 c20 27 23 43 23 124 0 77 -3
96 -19 114 -22 24 -66 27 -112 7z"/>
<path d="M2457 4205 c-36 -25 -48 -57 -27 -70 6 -4 25 6 43 21 l32 27 3 -71
c4 -103 -34 -172 -96 -172 -11 0 -30 -9 -43 -20 -23 -19 -24 -20 -5 -35 13
-10 28 -12 45 -7 48 13 97 4 154 -28 47 -26 60 -30 72 -20 8 7 15 16 15 20 0
9 -114 80 -129 80 -14 0 -15 -3 14 54 20 39 25 64 25 122 0 126 -26 151 -103
99z"/>
<path d="M3943 4140 c-44 -26 -59 -56 -43 -86 15 -28 39 -39 54 -24 7 7 7 16
-1 29 -10 15 -8 22 6 35 31 28 57 20 75 -24 46 -116 -7 -223 -139 -280 -44
-19 -55 -33 -36 -44 5 -4 84 -8 176 -9 136 -3 168 -1 172 10 3 8 -2 22 -10 31
-13 12 -34 15 -102 13 -47 -1 -85 0 -85 3 0 3 12 18 26 33 38 41 55 79 61 137
6 64 -10 126 -43 166 -30 36 -64 39 -111 10z"/>
<path d="M3468 4088 c-11 -31 72 -417 118 -552 13 -38 22 -72 19 -76 -9 -15
52 -58 101 -70 69 -17 120 -6 161 35 29 29 33 39 33 85 0 46 -4 56 -34 86 -26
26 -42 34 -71 34 -51 0 -102 -26 -130 -67 l-23 -35 -15 49 c-25 74 -56 203
-88 361 -16 79 -31 148 -34 153 -9 13 -33 11 -37 -3z m362 -528 c22 -22 26
-60 10 -90 -14 -26 -71 -43 -112 -32 -28 7 -34 13 -36 40 -3 26 4 40 31 67 40
40 77 45 107 15z"/>
<path d="M3010 4048 c0 -7 7 -22 15 -32 8 -11 15 -40 15 -65 1 -25 7 -82 15
-126 9 -44 18 -99 21 -122 l7 -43 -43 0 c-27 0 -51 7 -62 17 -23 21 -43 5 -33
-27 9 -27 48 -42 104 -38 42 2 45 0 53 -27 4 -17 11 -68 14 -115 4 -47 11 -95
15 -107 9 -25 34 -31 42 -10 4 12 -5 139 -18 233 l-7 51 48 17 c26 9 62 16 80
16 38 0 62 23 45 44 -14 16 -88 11 -140 -10 -18 -8 -37 -14 -41 -14 -8 0 -44
186 -55 285 -8 69 -18 85 -51 85 -13 0 -24 -6 -24 -12z"/>
<path d="M4671 3900 c-33 -16 -68 -21 -147 -22 -92 -2 -104 -4 -104 -20 0 -32
37 -41 132 -34 108 8 198 43 198 75 0 27 -22 27 -79 1z"/>
<path d="M2062 3840 c-178 -38 -271 -193 -185 -308 77 -103 238 -84 372 43
l58 55 58 -110 c63 -117 98 -161 116 -143 7 7 -13 54 -66 157 -71 136 -76 150
-70 190 8 53 -4 79 -47 100 -38 19 -176 29 -236 16z m204 -67 c0 -16 3 -42 7
-59 7 -28 3 -37 -43 -87 -86 -95 -202 -132 -280 -92 -37 19 -50 43 -50 92 0
51 29 96 83 128 54 31 107 42 208 44 l76 1 -1 -27z"/>
<path d="M5337 3829 c-89 -21 -201 -100 -231 -163 -54 -114 25 -286 158 -341
52 -22 137 -19 219 9 40 13 83 24 97 23 20 -2 25 3 25 23 0 21 -5 26 -32 28
-18 2 -64 -8 -103 -22 -122 -44 -202 -28 -273 55 -73 85 -75 181 -5 249 47 46
125 85 189 94 57 8 142 -9 165 -35 21 -23 54 -25 54 -3 0 30 -54 71 -108 83
-61 13 -101 13 -155 0z"/>
<path d="M4715 3694 c-136 -57 -158 -64 -200 -64 -24 0 -47 5 -50 10 -10 15
-45 12 -45 -5 0 -8 10 -24 23 -36 34 -33 138 -22 238 24 53 24 80 32 87 25 12
-12 28 -4 42 22 7 14 6 23 -6 34 -20 20 -18 20 -89 -10z"/>
<path d="M1216 13734 c-3 -9 -6 -532 -6 -1164 0 -1031 2 -1150 16 -1164 8 -9
20 -16 26 -16 5 0 8 -6 5 -14 -3 -8 4 -30 17 -48 64 -94 1001 -1374 1009
-1377 4 -1 17 -12 28 -24 l19 -21 873 17 c2484 50 2823 58 2839 67 10 6 24 10
32 10 25 0 28 33 4 64 -12 17 -257 338 -545 714 l-523 683 0 1129 c0 620 -3
1135 -6 1144 -6 15 -182 16 -1894 16 -1712 0 -1888 -1 -1894 -16z m3724 -1159
l0 -1115 -1830 0 -1830 0 0 1115 0 1115 1830 0 1830 0 0 -1115z m558 -1856
c283 -369 512 -672 510 -673 -2 -2 -829 -19 -1838 -40 -1263 -25 -1836 -33
-1838 -26 -2 6 -230 320 -506 698 -276 378 -505 693 -509 700 -7 9 362 12
1830 12 l1838 -1 513 -670z"/>
<path d="M1406 13564 c-11 -29 -7 -1834 4 -1855 11 -19 40 -19 1683 -19 1288
0 1676 3 1685 12 17 17 17 1849 0 1866 -9 9 -398 12 -1689 12 -1520 0 -1677
-1 -1683 -16z m3314 -929 l0 -885 -1625 0 -1625 0 0 885 0 885 1625 0 1625 0
0 -885z"/>
<path d="M18097 4893 c-4 -3 -7 -675 -7 -1493 0 -1142 3 -1489 12 -1498 17
-17 999 -17 1016 0 17 17 17 2969 0 2986 -9 9 -137 12 -513 12 -276 0 -505 -3
-508 -7z m971 -1495 l2 -1438 -460 0 -460 0 0 1440 0 1440 458 -2 457 -3 3
-1437z"/>
<path d="M18490 3148 c-112 -58 -122 -255 -17 -330 44 -32 120 -32 165 0 107
77 96 274 -18 332 -50 26 -76 25 -130 -2z m120 -68 c86 -86 19 -258 -84 -216
-69 28 -87 147 -31 206 35 36 85 40 115 10z"/>
</g>
</svg>
